<?xml version="1.0" encoding="utf-8"?>
<!-- Generator: Adobe Illustrator 24.1.1, SVG Export Plug-In . SVG Version: 6.00 Build 0)  -->
<!DOCTYPE svg PUBLIC "-//W3C//DTD SVG 1.1//EN" "http://www.w3.org/Graphics/SVG/1.1/DTD/svg11.dtd">
<svg version="1.1" id="Layer_1" xmlns="http://www.w3.org/2000/svg" xmlns:xlink="http://www.w3.org/1999/xlink" x="0px" y="0px"
	 viewBox="0 0 4302.425 911.094" style="enable-background:new 0 0 4302.425 911.094;" xml:space="preserve">
<g>
	<path d="M16.285,550.485c0-10.653,0.969-23.244,3.874-38.74l49.394-278.93C92.797,101.098,173.182,43.956,330.081,43.956
		c64.89,0,123,10.653,185.953,28.087l-31.961,122.031c-54.236-11.622-122.032-21.307-168.521-21.307
		c-68.764,0-96.85,23.244-108.473,91.039L167.372,488.5c-1.938,10.653-2.905,23.244-2.905,30.024
		c0,44.551,25.181,61.016,79.417,61.016c46.488,0,109.441-5.812,167.552-18.402l4.842,122.032
		c-51.33,14.527-123,25.181-194.669,25.181C79.238,708.351,16.285,640.556,16.285,550.485z"/>
	<path d="M833.706,379.059c0.969-5.811,1.938-11.622,1.938-15.496c0-9.685-4.843-13.559-18.401-13.559
		c-25.182,0-85.229,25.181-122.032,44.551l-53.268,304.111h-136.56L622.572,34.271l139.465-19.37l-43.583,249.875
		c57.142-29.055,121.063-47.457,172.394-47.457c62.953,0,86.197,35.835,86.197,95.882c0,16.464-0.969,34.866-4.842,54.236
		l-58.111,331.229H777.533L833.706,379.059z"/>
	<path d="M1299.558,698.666l-3.874-40.677c-32.93,25.181-82.323,50.361-150.118,50.361c-102.662,0-123.001-61.984-104.6-167.551
		l22.276-126.874c19.37-112.347,63.921-195.638,249.874-195.638c49.395,0,114.284,8.717,180.143,29.055l-78.449,451.324H1299.558z
		 M1175.589,555.327c-3.874,25.182,1.937,34.866,26.149,34.866c34.866,0,72.638-20.339,103.63-46.488l35.835-204.354
		c-18.401-3.874-38.74-4.843-53.268-4.843c-70.701,0-79.418,34.866-88.134,80.386L1175.589,555.327z"/>
	<path d="M1852.572,341.287c-60.048,32.93-82.323,45.52-136.56,79.418l-49.394,277.961h-136.56l80.386-460.04l120.095-20.339
		l-2.905,63.921c45.52-27.118,82.323-46.488,123-63.921L1852.572,341.287z"/>
	<path d="M2048.21,227.004l3.874,40.677c33.897-28.086,82.322-50.362,150.118-50.362c102.661,0,127.843,61.984,109.441,167.552
		l-22.276,126.874c-19.369,112.347-48.425,196.606-246.969,196.606c-14.527,0-44.551-1.937-57.142-4.842l-32.929,185.953
		l-139.465,19.37l120.094-681.828H2048.21z M2177.989,368.406c4.843-25.181-1.937-36.803-26.149-36.803
		c-48.426,0-83.291,25.181-109.442,48.425l-36.803,210.166c15.496,2.905,33.897,3.874,53.268,3.874
		c70.701,0,85.229-37.771,93.945-83.291L2177.989,368.406z"/>
	<path d="M2347.48,677.359l26.149-100.725c35.835,12.591,76.513,24.213,127.843,24.213c45.52,0,48.426-13.559,52.3-35.834
		c3.874-21.308-9.686-32.93-62.953-61.017c-98.788-52.299-102.661-87.165-90.071-157.866
		c18.402-101.693,48.426-128.812,179.174-128.812c44.551,0,101.693,9.686,140.434,22.276l-22.275,102.662
		c-34.867-9.685-86.197-17.433-119.127-17.433c-40.677,0-46.488,4.842-51.33,30.024c-3.875,22.275,0.968,27.118,46.488,51.331
		c108.473,58.111,124.937,78.449,111.378,153.024c-19.37,106.536-50.362,149.149-191.765,149.149
		C2450.142,708.351,2389.126,695.761,2347.48,677.359z"/>
	<path d="M2972.164,336.445l-41.646,235.347c-0.969,4.842-1.938,9.685-1.938,12.59c0,6.78,3.874,9.686,13.56,9.686
		c23.244,0,49.394-9.686,73.606-19.37l27.118,94.913c-38.74,21.308-94.914,38.74-150.119,38.74
		c-68.764,0-105.566-32.929-105.566-89.102c0-6.78,0.969-13.56,1.937-20.339l46.488-262.465h-69.732l19.37-109.441h69.732
		l19.37-113.315l140.434-19.37l-23.244,132.686h112.347l-27.118,109.441H2972.164z"/>
	<path d="M3569.727,541.769h-269.245l-80.386,156.897h-85.229l324.449-645.025h116.221l100.725,645.025h-83.291L3569.727,541.769z
		 M3333.412,472.036h225.662l-49.395-362.222L3333.412,472.036z"/>
	<path d="M4059.783,464.288h-161.741l-41.646,234.378h-81.354l114.284-645.025h230.504c121.063,0,170.457,48.425,170.457,126.875
		c0,10.653-0.969,24.212-2.905,34.866l-16.465,92.977c-13.56,77.48-39.709,122.031-127.843,145.275l125.906,245.032h-89.104
		L4059.783,464.288z M4206.027,215.382c1.937-10.654,2.905-19.37,2.905-27.118c0-46.488-29.056-61.984-94.913-61.984h-156.898
		l-46.488,266.339h156.898c79.417,0,111.378-23.244,123-90.071L4206.027,215.382z"/>
</g>
<g>
</g>
<g>
</g>
<g>
</g>
<g>
</g>
<g>
</g>
<g>
</g>
</svg>
